# xmcd CD database file
#
# Track frame offsets:
#	150
#	21145
#	43432
#	68272
#	89900
#	114632
#	138175
#	168722
#
# Disc length: 2522 seconds
#
# Revision: 0
# Processed by: cddbd v1.5.2PL0 Copyright (c) Steve Scherf et al.
# Submitted via: CDex 1.77
#
DISCID=6f09d808
DTITLE=Triad - Vibration
DYEAR=2006
DGENRE=Jazz
TTITLE0=Clito
TTITLE1=Happy Walk
TTITLE2=The product
TTITLE3=Crazy dog
TTITLE4=Funk around the world
TTITLE5=Cote d'Azur
TTITLE6=Kusha
TTITLE7=Jacopo
EXTD=YEAR: 2006
EXTT0=
EXTT1=
EXTT2=
EXTT3=
EXTT4=
EXTT5=
EXTT6=
EXTT7=
PLAYORDER=
